<svg width="36" height="31" viewBox="0 0 36 31" fill="none" xmlns="http://www.w3.org/2000/svg">
<g clip-path="url(#clip0_6_59)">
<path d="M3.35571 0H32.1956C33.0856 0 33.9391 0.355184 34.5684 0.987416C35.1977 1.61965 35.5513 2.47714 35.5513 3.37125C35.5513 4.26536 35.1977 5.12285 34.5684 5.75508C33.9391 6.38732 33.0856 6.7425 32.1956 6.7425H3.35571C2.46572 6.7425 1.61218 6.38732 0.982866 5.75508C0.353548 5.12285 1.00008e-07 4.26536 1.00008e-07 3.37125C1.00008e-07 2.47714 0.353548 1.61965 0.982866 0.987416C1.61218 0.355184 2.46572 0 3.35571 0V0ZM3.35571 12.1288H32.1956C32.6363 12.1288 33.0726 12.2159 33.4798 12.3854C33.8869 12.5548 34.2568 12.8031 34.5684 13.1162C34.88 13.4292 35.1272 13.8009 35.2959 14.2099C35.4645 14.6189 35.5513 15.0573 35.5513 15.5C35.5513 15.9427 35.4645 16.3811 35.2959 16.7901C35.1272 17.1991 34.88 17.5708 34.5684 17.8838C34.2568 18.1969 33.8869 18.4452 33.4798 18.6146C33.0726 18.784 32.6363 18.8712 32.1956 18.8712H3.35571C2.91504 18.8712 2.47867 18.784 2.07154 18.6146C1.6644 18.4452 1.29447 18.1969 0.982866 17.8838C0.671259 17.5708 0.424079 17.1991 0.255439 16.7901C0.0867981 16.3811 2.92917e-08 15.9427 2.92917e-08 15.5C2.92917e-08 15.0573 0.0867981 14.6189 0.255439 14.2099C0.424079 13.8009 0.671259 13.4292 0.982866 13.1162C1.29447 12.8031 1.6644 12.5548 2.07154 12.3854C2.47867 12.2159 2.91504 12.1288 3.35571 12.1288V12.1288ZM3.35571 24.2588H32.1956C32.6363 24.2588 33.0726 24.346 33.4798 24.5154C33.8869 24.6848 34.2568 24.9332 34.5684 25.2462C34.88 25.5593 35.1272 25.9309 35.2959 26.3399C35.4645 26.7489 35.5513 27.1873 35.5513 27.63C35.5513 28.0728 35.4645 28.5111 35.2959 28.9202C35.1272 29.3292 34.88 29.7008 34.5684 30.0139C34.2568 30.3269 33.8869 30.5752 33.4798 30.7447C33.0726 30.9141 32.6363 31.0013 32.1956 31.0013H3.35571C2.91504 31.0013 2.47867 30.9141 2.07154 30.7447C1.6644 30.5752 1.29447 30.3269 0.982866 30.0139C0.671259 29.7008 0.424079 29.3292 0.255439 28.9202C0.0867981 28.5111 0 28.0728 0 27.63C0 27.1873 0.0867981 26.7489 0.255439 26.3399C0.424079 25.9309 0.671259 25.5593 0.982866 25.2462C1.29447 24.9332 1.6644 24.6848 2.07154 24.5154C2.47867 24.346 2.91504 24.2588 3.35571 24.2588V24.2588Z" fill="black"/>
</g>
<defs>
<clipPath id="clip0_6_59">
<rect width="36" height="31" fill="white"/>
</clipPath>
</defs>
</svg>
